<svg xmlns="http://www.w3.org/2000/svg" viewBox="0 0 105 105" width="105" height="105" preserveAspectRatio="xMidYMid meet" style="width: 100%; height: 100%; transform: translate3d(0px, 0px, 0px);"><defs><clipPath id="__lottie_element_102"><rect width="105" height="105" x="0" y="0"></rect></clipPath></defs><g clip-path="url(#__lottie_element_102)"><g transform="matrix(1,0,0,1,0,0)" opacity="1" style="display: block;"><g opacity="1" transform="matrix(1,0,0,1,52.452999114990234,52.45199966430664)"><path fill="rgb(253,211,57)" fill-opacity="1" d=" M0.0010000000474974513,-52.45199966430664 C28.969999313354492,-52.45199966430664 52.45399856567383,-28.968000411987305 52.45399856567383,0.0010000000474974513 C52.45399856567383,28.969999313354492 28.969999313354492,52.45399856567383 0.0010000000474974513,52.45399856567383 C-28.968000411987305,52.45399856567383 -52.45199966430664,28.969999313354492 -52.45199966430664,0.0010000000474974513 C-52.45199966430664,-28.968000411987305 -28.968000411987305,-52.45199966430664 0.0010000000474974513,-52.45199966430664z"></path></g></g><g style="display: block;" transform="matrix(1,0,0,1,0,-0.4519996643066406)" opacity="1"><g opacity="1" transform="matrix(1,0,0,1,52.06700134277344,58.59299850463867)"><path stroke-linecap="round" stroke-linejoin="round" fill-opacity="0" stroke="rgb(0,0,0)" stroke-opacity="1" stroke-width="2" d=" M-13.60200023651123,12.562000274658203 C-15.019000053405762,12.562000274658203 -16.16900062561035,11.37399959564209 -16.16900062561035,9.907999992370605 C-16.16900062561035,9.907999992370605 -16.16900062561035,-9.909000396728516 -16.16900062561035,-9.909000396728516 C-16.16900062561035,-11.375 -15.019000053405762,-12.562000274658203 -13.60200023651123,-12.562000274658203 C-13.60200023651123,-12.562000274658203 13.60200023651123,-12.562000274658203 13.60200023651123,-12.562000274658203 C15.019000053405762,-12.562000274658203 16.16900062561035,-11.375 16.16900062561035,-9.909000396728516 C16.16900062561035,-9.909000396728516 16.16900062561035,9.907999992370605 16.16900062561035,9.907999992370605 C16.16900062561035,11.37399959564209 15.019000053405762,12.562000274658203 13.60200023651123,12.562000274658203 C13.60200023651123,12.562000274658203 -13.60200023651123,12.562000274658203 -13.60200023651123,12.562000274658203z"></path></g><g opacity="1" transform="matrix(1,0,0,1,52.209999084472656,58.527000427246094)"><path stroke-linecap="round" stroke-linejoin="round" fill-opacity="0" stroke="rgb(0,0,0)" stroke-opacity="1" stroke-width="1" d=" M-11.541000366210938,4.752999782562256 C-12.02400016784668,4.752999782562256 -12.414999961853027,4.366000175476074 -12.414999961853027,3.8889999389648438 C-12.414999961853027,3.8889999389648438 -12.414999961853027,-3.8889999389648438 -12.414999961853027,-3.8889999389648438 C-12.414999961853027,-4.366000175476074 -12.02400016784668,-4.752999782562256 -11.541000366210938,-4.752999782562256 C-11.541000366210938,-4.752999782562256 11.541000366210938,-4.752999782562256 11.541000366210938,-4.752999782562256 C12.02299976348877,-4.752999782562256 12.414999961853027,-4.366000175476074 12.414999961853027,-3.8889999389648438 C12.414999961853027,-3.8889999389648438 12.414999961853027,3.8889999389648438 12.414999961853027,3.8889999389648438 C12.414999961853027,4.366000175476074 12.02299976348877,4.752999782562256 11.541000366210938,4.752999782562256 C11.541000366210938,4.752999782562256 -11.541000366210938,4.752999782562256 -11.541000366210938,4.752999782562256z"></path></g><g opacity="1" transform="matrix(1,0,0,1,0,0)"><path stroke-linecap="round" stroke-linejoin="miter" fill-opacity="0" stroke-miterlimit="4" stroke="rgb(0,0,0)" stroke-opacity="1" stroke-width="1" d=" M40.03300094604492,65.4540023803711 C40.03300094604492,65.4540023803711 47.308998107910156,65.4540023803711 47.308998107910156,65.4540023803711"></path></g><g opacity="1" transform="matrix(1,0,0,1,0,0)"><path stroke-linecap="round" stroke-linejoin="miter" fill-opacity="0" stroke-miterlimit="4" stroke="rgb(0,0,0)" stroke-opacity="1" stroke-width="1" d=" M40.03300094604492,67.85199737548828 C40.03300094604492,67.85199737548828 49.70800018310547,67.85199737548828 49.70800018310547,67.85199737548828"></path></g><g opacity="1" transform="matrix(1,0,0,1,0,0)"><path stroke-linecap="round" stroke-linejoin="miter" fill-opacity="0" stroke-miterlimit="4" stroke="rgb(0,0,0)" stroke-opacity="1" stroke-width="1" d=" M47.308998107910156,57.05799865722656 C47.308998107910156,57.05799865722656 62.26100158691406,57.05799865722656 62.26100158691406,57.05799865722656"></path></g><g opacity="1" transform="matrix(1,0,0,1,0,0)"><path stroke-linecap="round" stroke-linejoin="miter" fill-opacity="0" stroke-miterlimit="4" stroke="rgb(0,0,0)" stroke-opacity="1" stroke-width="1" d=" M47.308998107910156,59.297000885009766 C47.308998107910156,59.297000885009766 54.82500076293945,59.297000885009766 54.82500076293945,59.297000885009766"></path></g><g opacity="1" transform="matrix(1,0,0,1,42.569000244140625,60.03099822998047)"><path fill="rgb(0,0,0)" fill-opacity="1" d=" M0,-0.6190000176429749 C-0.34200000762939453,-0.6190000176429749 -0.6190000176429749,-0.34200000762939453 -0.6190000176429749,0 C-0.6190000176429749,0.34200000762939453 -0.34200000762939453,0.6190000176429749 0,0.6190000176429749 C0.34200000762939453,0.6190000176429749 0.6190000176429749,0.34200000762939453 0.6190000176429749,0 C0.6190000176429749,-0.34200000762939453 0.34200000762939453,-0.6190000176429749 0,-0.6190000176429749z"></path></g><g opacity="1" transform="matrix(1,0,0,1,44.220001220703125,59.61800003051758)"><path fill="rgb(0,0,0)" fill-opacity="1" d=" M0,-0.6190000176429749 C-0.34200000762939453,-0.6190000176429749 -0.6190000176429749,-0.34200000762939453 -0.6190000176429749,0 C-0.6190000176429749,0.34200000762939453 -0.34200000762939453,0.6190000176429749 0,0.6190000176429749 C0.34200000762939453,0.6190000176429749 0.6190000176429749,0.34200000762939453 0.6190000176429749,0 C0.6190000176429749,-0.34200000762939453 0.34200000762939453,-0.6190000176429749 0,-0.6190000176429749z"></path></g><g opacity="1" transform="matrix(1,0,0,1,0,0)"><path stroke-linecap="round" stroke-linejoin="miter" fill-opacity="0" stroke-miterlimit="4" stroke="rgb(0,0,0)" stroke-opacity="1" stroke-width="0.5" d=" M42.9109992980957,57.05799865722656 C42.9109992980957,57.05799865722656 44.59000015258789,57.05799865722656 44.59000015258789,57.05799865722656"></path></g><g opacity="1" transform="matrix(1,0,0,1,0,0)"><path stroke-linecap="round" stroke-linejoin="miter" fill-opacity="0" stroke-miterlimit="4" stroke="rgb(0,0,0)" stroke-opacity="1" stroke-width="0.5" d=" M42.9109992980957,60.01599884033203 C42.9109992980957,60.01599884033203 42.9109992980957,57.05799865722656 42.9109992980957,57.05799865722656"></path></g><g opacity="1" transform="matrix(1,0,0,1,0,0)"><path stroke-linecap="round" stroke-linejoin="miter" fill-opacity="0" stroke-miterlimit="4" stroke="rgb(0,0,0)" stroke-opacity="1" stroke-width="0.5" d=" M44.59000015258789,59.5369987487793 C44.59000015258789,59.5369987487793 44.59000015258789,57.05799865722656 44.59000015258789,57.05799865722656"></path></g><g opacity="1" transform="matrix(1,0,0,1,0,0)"><path stroke-linecap="round" stroke-linejoin="miter" fill-opacity="0" stroke-miterlimit="4" stroke="rgb(0,0,0)" stroke-opacity="1" stroke-width="1" d=" M53.94599914550781,67.85199737548828 C53.94599914550781,67.85199737548828 65.05899810791016,67.85199737548828 65.05899810791016,67.85199737548828"></path></g></g><g style="display: block;" transform="matrix(1,0,0,1,0,0)" opacity="1"><g opacity="1" transform="matrix(1,0,0,1,0,0)"><path stroke-linecap="round" stroke-linejoin="miter" fill-opacity="0" stroke-miterlimit="4" stroke="rgb(0,0,0)" stroke-opacity="1" stroke-width="2" d=" M84.6500015258789,80.11599731445312 C84.6500015258789,80.11599731445312 84.6500015258789,69.44400024414062 84.6500015258789,69.44400024414062"></path></g></g><g style="display: block;" transform="matrix(1,0,0,1,0,0)" opacity="1"><g opacity="1" transform="matrix(1,0,0,1,0,0)"><path stroke-linecap="round" stroke-linejoin="miter" fill-opacity="0" stroke-miterlimit="4" stroke="rgb(0,0,0)" stroke-opacity="1" stroke-width="2" d=" M78.06900024414062,80.11599731445312 C78.06900024414062,80.11599731445312 78.06900024414062,69.44400024414062 78.06900024414062,69.44400024414062"></path></g></g><g style="display: block;" transform="matrix(1,0,0,1,0,0)" opacity="1"><g opacity="1" transform="matrix(1,0,0,1,0,0)"><path stroke-linecap="round" stroke-linejoin="miter" fill-opacity="0" stroke-miterlimit="4" stroke="rgb(0,0,0)" stroke-opacity="1" stroke-width="2" d=" M26.242000579833984,80.11599731445312 C26.242000579833984,80.11599731445312 26.242000579833984,69.44400024414062 26.242000579833984,69.44400024414062"></path></g></g><g transform="matrix(1,0,0,1,0,0)" opacity="1" style="display: block;"><g opacity="1" transform="matrix(1,0,0,1,0,0)"><path stroke-linecap="round" stroke-linejoin="miter" fill-opacity="0" stroke-miterlimit="4" stroke="rgb(0,0,0)" stroke-opacity="1" stroke-width="2" d=" M19.660999298095703,80.11599731445312 C19.660999298095703,80.11599731445312 19.660999298095703,69.44400024414062 19.660999298095703,69.44400024414062"></path></g></g><g style="display: block;" transform="matrix(1,0,0,1,0,0)" opacity="1"><g opacity="1" transform="matrix(1,0,0,1,0,0)"><path stroke-linecap="round" stroke-linejoin="miter" fill-opacity="0" stroke-miterlimit="4" stroke="rgb(0,0,0)" stroke-opacity="1" stroke-width="2" d=" M32.64099884033203,75.77999877929688 C32.64099884033203,75.77999877929688 71.66899871826172,75.77999877929688 71.66899871826172,75.77999877929688"></path></g></g><g style="display: block;" transform="matrix(1,0,0,1,0,0)" opacity="1"><g opacity="1" transform="matrix(1,0,0,1,0,0)"><path stroke-linecap="round" stroke-linejoin="miter" fill-opacity="0" stroke-miterlimit="4" stroke="rgb(0,0,0)" stroke-opacity="1" stroke-width="2" d=" M11.746999740600586,80.11599731445312 C11.746999740600586,80.11599731445312 92.56300354003906,80.11599731445312 92.56300354003906,80.11599731445312"></path></g></g><g style="display: block;" transform="matrix(1,0,0,1,-0.4519996643066406,-0.4519996643066406)" opacity="0.9999975866977008"><g opacity="1" transform="matrix(1,0,0,1,39.84299850463867,49.95000076293945)"><path fill="rgb(0,0,0)" fill-opacity="1" d=" M0,-0.7300000190734863 C-0.40299999713897705,-0.7300000190734863 -0.7300000190734863,-0.40299999713897705 -0.7300000190734863,0 C-0.7300000190734863,0.40299999713897705 -0.40299999713897705,0.7300000190734863 0,0.7300000190734863 C0.40299999713897705,0.7300000190734863 0.7300000190734863,0.40299999713897705 0.7300000190734863,0 C0.7300000190734863,-0.40299999713897705 0.40299999713897705,-0.7300000190734863 0,-0.7300000190734863z"></path></g><g opacity="1" transform="matrix(1,0,0,1,42.39799880981445,49.95000076293945)"><path fill="rgb(0,0,0)" fill-opacity="1" d=" M0,-0.7300000190734863 C-0.40299999713897705,-0.7300000190734863 -0.7300000190734863,-0.40299999713897705 -0.7300000190734863,0 C-0.7300000190734863,0.40299999713897705 -0.40299999713897705,0.7300000190734863 0,0.7300000190734863 C0.40299999713897705,0.7300000190734863 0.7300000190734863,0.40299999713897705 0.7300000190734863,0 C0.7300000190734863,-0.40299999713897705 0.40299999713897705,-0.7300000190734863 0,-0.7300000190734863z"></path></g><g opacity="1" transform="matrix(1,0,0,1,44.95199966430664,49.95000076293945)"><path fill="rgb(0,0,0)" fill-opacity="1" d=" M0,-0.7300000190734863 C-0.40299999713897705,-0.7300000190734863 -0.7300000190734863,-0.40299999713897705 -0.7300000190734863,0 C-0.7300000190734863,0.40299999713897705 -0.40299999713897705,0.7300000190734863 0,0.7300000190734863 C0.40299999713897705,0.7300000190734863 0.7300000190734863,0.40299999713897705 0.7300000190734863,0 C0.7300000190734863,-0.40299999713897705 0.40299999713897705,-0.7300000190734863 0,-0.7300000190734863z"></path></g></g><g style="display: block;" transform="matrix(1,0,0,1,0,0)" opacity="1"><g opacity="1" transform="matrix(1,0,0,1,81.302001953125,50.62900161743164)"><path stroke-linecap="round" stroke-linejoin="round" fill-opacity="0" stroke="rgb(0,0,0)" stroke-opacity="1" stroke-width="2" d=" M-0.0010000000474974513,0.9010000228881836 C-0.49799999594688416,0.9010000228881836 -0.8999999761581421,0.49799999594688416 -0.8999999761581421,0 C-0.8999999761581421,-0.4970000088214874 -0.49799999594688416,-0.9010000228881836 -0.0010000000474974513,-0.9010000228881836 C0.4970000088214874,-0.9010000228881836 0.8999999761581421,-0.4970000088214874 0.8999999761581421,0 C0.8999999761581421,0.49799999594688416 0.4970000088214874,0.9010000228881836 -0.0010000000474974513,0.9010000228881836z"></path></g><g opacity="1" transform="matrix(1,0,0,1,81.302001953125,61.66600036621094)"><path stroke-linecap="round" stroke-linejoin="round" fill-opacity="0" stroke="rgb(0,0,0)" stroke-opacity="1" stroke-width="2" d=" M0,4.114999771118164 C-2.2720000743865967,4.114999771118164 -4.113999843597412,2.2720000743865967 -4.113999843597412,0.0010000000474974513 C-4.113999843597412,-2.2720000743865967 -2.2720000743865967,-4.114999771118164 0,-4.114999771118164 C2.2720000743865967,-4.114999771118164 4.113999843597412,-2.2720000743865967 4.113999843597412,0.0010000000474974513 C4.113999843597412,2.2720000743865967 2.2720000743865967,4.114999771118164 0,4.114999771118164z"></path></g><g opacity="1" transform="matrix(1,0,0,1,81.23300170898438,56.525001525878906)"><path stroke-linecap="round" stroke-linejoin="round" fill-opacity="0" stroke="rgb(0,0,0)" stroke-opacity="1" stroke-width="2" d=" M-5.000999927520752,12.5 C-6.973999977111816,12.5 -8.572999954223633,10.836999893188477 -8.572999954223633,8.784000396728516 C-8.572999954223633,8.784000396728516 -8.572999954223633,-8.286999702453613 -8.572999954223633,-8.286999702453613 C-8.572999954223633,-10.61400032043457 -6.758999824523926,-12.5 -4.520999908447266,-12.5 C-4.520999908447266,-12.5 4.5229997634887695,-12.5 4.5229997634887695,-12.5 C6.761000156402588,-12.5 8.572999954223633,-10.61400032043457 8.572999954223633,-8.286999702453613 C8.572999954223633,-8.286999702453613 8.572999954223633,8.28600025177002 8.572999954223633,8.28600025177002 C8.572999954223633,10.61299991607666 6.761000156402588,12.5 4.5229997634887695,12.5 C4.5229997634887695,12.5 -5.000999927520752,12.5 -5.000999927520752,12.5z"></path></g></g><g style="display: block;" transform="matrix(1,0,0,1,0,0)" opacity="1"><g opacity="1" transform="matrix(1,0,0,1,22.86199951171875,56.5260009765625)"><path stroke-linecap="round" stroke-linejoin="round" fill-opacity="0" stroke="rgb(0,0,0)" stroke-opacity="1" stroke-width="2" d=" M-5.000999927520752,12.475000381469727 C-6.973999977111816,12.475000381469727 -8.572999954223633,10.8149995803833 -8.572999954223633,8.767000198364258 C-8.572999954223633,8.767000198364258 -8.572999954223633,-8.270000457763672 -8.572999954223633,-8.270000457763672 C-8.572999954223633,-10.592000007629395 -6.758999824523926,-12.475000381469727 -4.521999835968018,-12.475000381469727 C-4.521999835968018,-12.475000381469727 4.5229997634887695,-12.475000381469727 4.5229997634887695,-12.475000381469727 C6.760000228881836,-12.475000381469727 8.572999954223633,-10.592000007629395 8.572999954223633,-8.270000457763672 C8.572999954223633,-8.270000457763672 8.572999954223633,8.270000457763672 8.572999954223633,8.270000457763672 C8.572999954223633,10.592000007629395 6.760000228881836,12.475000381469727 4.5229997634887695,12.475000381469727 C4.5229997634887695,12.475000381469727 -5.000999927520752,12.475000381469727 -5.000999927520752,12.475000381469727z"></path></g><g opacity="1" transform="matrix(1,0,0,1,22.937999725341797,61.66600036621094)"><path stroke-linecap="round" stroke-linejoin="round" fill-opacity="0" stroke="rgb(0,0,0)" stroke-opacity="1" stroke-width="2" d=" M0,4.114999771118164 C-2.2720000743865967,4.114999771118164 -4.113999843597412,2.2720000743865967 -4.113999843597412,0.0010000000474974513 C-4.113999843597412,-2.2720000743865967 -2.2720000743865967,-4.114999771118164 0,-4.114999771118164 C2.2720000743865967,-4.114999771118164 4.113999843597412,-2.2720000743865967 4.113999843597412,0.0010000000474974513 C4.113999843597412,2.2720000743865967 2.2720000743865967,4.114999771118164 0,4.114999771118164z"></path></g><g opacity="1" transform="matrix(1,0,0,1,22.937999725341797,50.62900161743164)"><path stroke-linecap="round" stroke-linejoin="round" fill-opacity="0" stroke="rgb(0,0,0)" stroke-opacity="1" stroke-width="2" d=" M0,0.9010000228881836 C-0.49799999594688416,0.9010000228881836 -0.9010000228881836,0.49799999594688416 -0.9010000228881836,0 C-0.9010000228881836,-0.4970000088214874 -0.49799999594688416,-0.9010000228881836 0,-0.9010000228881836 C0.49799999594688416,-0.9010000228881836 0.9010000228881836,-0.4970000088214874 0.9010000228881836,0 C0.9010000228881836,0.49799999594688416 0.49799999594688416,0.9010000228881836 0,0.9010000228881836z"></path></g></g></g></svg>